# xmcd CD database file
#
# Track frame offsets:
#	150
#	28110
#	54769
#	72132
#	99690
#	126087
#	155466
#	174373
#	205178
#	229055
#
# Disc length: 3427 seconds
#
# Revision: 0
# Processed by: cddbd v1.5.1PL0 Copyright (c) Steve Scherf et al.
# Submitted via: CDex 1.51
#
DISCID=7c0d610a
DTITLE=Jan Skovgaard Petersen  - Peaceful Morning 
DYEAR=2004
DGENRE=New Age
TTITLE0=Healing Waves
TTITLE1=Breath of the Wind
TTITLE2=Quiet Beauty
TTITLE3=Beyond the Clouds
TTITLE4=Romantic Dreams
TTITLE5=Deep Blue Dancing
TTITLE6=Peaceful Morning
TTITLE7=Cool Water
TTITLE8=Morning Dew
TTITLE9=Deep Water
EXTD=YEAR: 2004
EXTT0=
EXTT1=
EXTT2=
EXTT3=
EXTT4=
EXTT5=
EXTT6=
EXTT7=
EXTT8=
EXTT9=
PLAYORDER=
